<svg width="18" height="11" viewBox="0 0 18 11" fill="none" xmlns="http://www.w3.org/2000/svg">
<path d="M15.8969 3.53554C15.7484 3.53554 15.6116 3.43982 15.564 3.30179C15.5164 3.16367 15.5645 3.00659 15.683 2.91793C15.7967 2.83282 15.9547 2.82451 16.0776 2.89595C16.2033 2.96912 16.2706 3.11782 16.2415 3.25826C16.2086 3.41726 16.063 3.53554 15.8969 3.53554Z" fill="white"/>
<path d="M8.99999 7.75938C7.72903 7.75938 6.69501 6.74582 6.69501 5.49998C6.69501 4.25415 7.72903 3.24058 8.99999 3.24058C9.61445 3.24058 10.1924 3.47478 10.6274 3.90001C11.0643 4.32717 11.3049 4.89539 11.3049 5.49998C11.3049 6.10457 11.0643 6.67279 10.6274 7.09995C10.1925 7.52522 9.61449 7.75938 8.99999 7.75938ZM8.99999 3.9295C8.11673 3.9295 7.39814 4.63402 7.39814 5.49998C7.39814 6.36595 8.11673 7.07047 8.99999 7.07047C9.42697 7.07047 9.82856 6.90774 10.1308 6.6123C10.4345 6.31528 10.6019 5.92029 10.6019 5.49998C10.6019 5.07968 10.4345 4.68469 10.1308 4.38766C9.82856 4.09222 9.42697 3.9295 8.99999 3.9295Z" fill="white"/>
<path d="M17.9408 5.30867C17.9285 5.29059 17.6328 4.85905 17.0822 4.24464C16.9541 4.10169 16.732 4.08754 16.586 4.21306C16.4401 4.33858 16.4257 4.55624 16.5538 4.69919C16.8661 5.04761 17.0927 5.33547 17.2239 5.50977C16.9544 5.90407 16.2471 6.86421 15.1528 7.82069C14.5977 8.30583 13.8927 8.83078 13.0543 9.27303C14.0461 8.25003 14.5905 6.91611 14.5905 5.49995C14.5905 4.98168 14.5165 4.46844 14.3708 3.97455C14.3328 3.84604 14.2223 3.75062 14.0874 3.72995C13.9525 3.70922 13.8176 3.76698 13.7413 3.878C13.71 3.92371 13.6739 3.96656 13.6343 4.00535C13.472 4.16401 13.2563 4.25139 13.027 4.25139C12.5526 4.25139 12.1666 3.87294 12.1666 3.40778C12.1666 2.94328 12.5515 2.56524 13.025 2.56417C13.0271 2.56421 13.0295 2.56421 13.031 2.56421C13.1673 2.56421 13.2914 2.48702 13.3493 2.36611C13.4072 2.24521 13.3886 2.10243 13.3015 1.99968C13.1966 1.87588 13.0851 1.75549 12.9698 1.64141C13.4533 1.87753 13.9322 2.15723 14.4053 2.48023C14.5647 2.58897 14.7837 2.5506 14.8947 2.39453C15.0057 2.23842 14.9666 2.02372 14.8073 1.91498C12.9457 0.644342 10.9919 0 8.99999 0C7.69415 0 6.40923 0.281697 5.1809 0.837272C4.20388 1.27918 3.26123 1.89417 2.37913 2.6652C0.881718 3.97404 0.0831445 5.26868 0.0498867 5.32314C-0.0166289 5.43206 -0.0166289 5.56794 0.0498867 5.67686C0.0806484 5.72722 0.818859 6.92449 2.20581 8.18058C3.62598 9.46679 5.95757 11 8.99999 11C10.3058 11 11.5908 10.7183 12.8191 10.1627C13.7961 9.72082 14.7388 9.10583 15.6209 8.3348C17.1183 7.02593 17.9168 5.73129 17.9501 5.67683C18.0199 5.56264 18.0162 5.41931 17.9408 5.30867ZM11.4635 3.40785C11.4635 4.25291 12.1649 4.94038 13.027 4.94038C13.3119 4.94038 13.5853 4.86615 13.824 4.72702C13.8661 4.98154 13.8873 5.24002 13.8873 5.49998C13.8873 6.78216 13.3769 7.98724 12.4502 8.89326C11.5281 9.79478 10.3027 10.2913 8.99992 10.2913C6.30502 10.2913 4.11258 8.14194 4.11258 5.49998C4.11258 2.85803 6.30509 0.708686 8.99999 0.708686C10.2612 0.708686 11.4497 1.17394 12.3609 2.02145C11.831 2.26708 11.4635 2.7962 11.4635 3.40785ZM0.769535 5.49981C1.03394 5.11168 1.74389 4.14361 2.8472 3.17924C3.40379 2.69273 4.11124 2.16622 4.9527 1.72322C3.99698 2.70695 3.40952 4.03749 3.40952 5.49998C3.40952 6.96303 3.9974 8.29401 4.95379 9.27785C4.03994 8.79651 3.27691 8.21251 2.68305 7.67468C1.67635 6.76294 1.02129 5.86886 0.769535 5.49981Z" fill="white"/>
</svg>
