<svg width="46" height="36" viewBox="0 0 46 36" fill="none" xmlns="http://www.w3.org/2000/svg">
<path d="M1.79707 13.7561L14.0637 1.75515C16.4527 -0.585049 20.3473 -0.585049 22.7363 1.75515C23.8955 2.88624 24.5333 4.39537 24.5333 5.9975C24.5333 7.59963 23.8955 9.10876 22.7363 10.2399L14.8059 17.9985L22.7363 25.7571C23.8955 26.8912 24.5333 28.3974 24.5333 29.9995C24.5333 31.6016 23.8955 33.1078 22.7363 34.2419C21.5771 35.3759 20.0376 36 18.4 36C16.7624 36 15.2229 35.3759 14.0637 34.2419L1.79707 22.2409C0.637871 21.1098 0 19.6006 0 17.9985C0 16.3964 0.637871 14.8872 1.79707 13.7561ZM3.9652 20.1197L16.2319 32.1207C17.3941 33.2548 19.4059 33.2548 20.5681 32.1207C21.7641 30.9506 21.7641 29.0484 20.5681 27.8783L10.4696 17.9985L20.5681 8.11868C21.1477 7.55163 21.4667 6.79857 21.4667 5.9975C21.4667 5.19643 21.1477 4.44337 20.5681 3.87632C19.9701 3.29127 19.1851 2.99725 18.4 2.99725C17.6149 2.99725 16.8299 3.29127 16.2319 3.87332L3.9652 15.8743C3.3856 16.4444 3.06667 17.1974 3.06667 17.9985C3.06667 18.7996 3.3856 19.5526 3.9652 20.1197Z" fill="#D3A341"/>
<path d="M23.2637 13.7561L35.5304 1.75515C37.9193 -0.585049 41.814 -0.585049 44.2029 1.75515C45.3621 2.88624 46 4.39537 46 5.9975C46 7.59963 45.3621 9.10876 44.2029 10.2399L36.2725 17.9985L44.2029 25.7571C45.3621 26.8912 46 28.3974 46 29.9995C46 31.6016 45.3621 33.1078 44.2029 34.2419C43.0437 35.3759 41.5043 36 39.8667 36C38.2291 36 36.6896 35.3759 35.5304 34.2419L23.2637 22.2409C22.1045 21.1098 21.4667 19.6006 21.4667 17.9985C21.4667 16.3964 22.1045 14.8872 23.2637 13.7561ZM25.4319 20.1197L37.6985 32.1207C38.8608 33.2548 40.8725 33.2548 42.0348 32.1207C43.2308 30.9506 43.2308 29.0484 42.0348 27.8783L31.9363 17.9985L42.0348 8.11868C42.6144 7.55163 42.9333 6.79857 42.9333 5.9975C42.9333 5.19643 42.6144 4.44337 42.0348 3.87632C41.4368 3.29127 40.6517 2.99725 39.8667 2.99725C39.0816 2.99725 38.2965 3.29127 37.6985 3.87332L25.4319 15.8743C24.8523 16.4444 24.5333 17.1974 24.5333 17.9985C24.5333 18.7996 24.8523 19.5526 25.4319 20.1197Z" fill="#D3A341"/>
</svg>
