<svg width="46" height="36" viewBox="0 0 46 36" fill="none" xmlns="http://www.w3.org/2000/svg">
<path d="M44.2029 13.7561L31.9363 1.75515C29.5473 -0.585049 25.6527 -0.585049 23.2637 1.75515C22.1045 2.88624 21.4667 4.39537 21.4667 5.9975C21.4667 7.59963 22.1045 9.10876 23.2637 10.2399L31.1941 17.9985L23.2637 25.7571C22.1045 26.8912 21.4667 28.3974 21.4667 29.9995C21.4667 31.6016 22.1045 33.1078 23.2637 34.2419C24.4229 35.3759 25.9624 36 27.6 36C29.2376 36 30.7771 35.3759 31.9363 34.2419L44.2029 22.2409C45.3621 21.1098 46 19.6006 46 17.9985C46 16.3964 45.3621 14.8872 44.2029 13.7561ZM42.0348 20.1197L29.7681 32.1207C28.6059 33.2548 26.5941 33.2548 25.4319 32.1207C24.2359 30.9506 24.2359 29.0484 25.4319 27.8783L35.5304 17.9985L25.4319 8.11868C24.8523 7.55163 24.5333 6.79857 24.5333 5.9975C24.5333 5.19643 24.8523 4.44337 25.4319 3.87632C26.0299 3.29127 26.8149 2.99725 27.6 2.99725C28.3851 2.99725 29.1701 3.29127 29.7681 3.87332L42.0348 15.8743C42.6144 16.4444 42.9333 17.1974 42.9333 17.9985C42.9333 18.7996 42.6144 19.5526 42.0348 20.1197Z" fill="#D3A341"/>
<path d="M22.7363 13.7561L10.4696 1.75515C8.08067 -0.585049 4.186 -0.585049 1.79707 1.75515C0.637867 2.88624 0 4.39537 0 5.9975C0 7.59963 0.637867 9.10876 1.79707 10.2399L9.72747 17.9985L1.79707 25.7571C0.637867 26.8912 0 28.3974 0 29.9995C0 31.6016 0.637867 33.1078 1.79707 34.2419C2.95627 35.3759 4.49573 36 6.13333 36C7.77093 36 9.3104 35.3759 10.4696 34.2419L22.7363 22.2409C23.8955 21.1098 24.5333 19.6006 24.5333 17.9985C24.5333 16.3964 23.8955 14.8872 22.7363 13.7561ZM20.5681 20.1197L8.30147 32.1207C7.1392 33.2548 5.12747 33.2548 3.9652 32.1207C2.7692 30.9506 2.7692 29.0484 3.9652 27.8783L14.0637 17.9985L3.9652 8.11868C3.3856 7.55163 3.06667 6.79857 3.06667 5.9975C3.06667 5.19643 3.3856 4.44337 3.9652 3.87632C4.5632 3.29127 5.34827 2.99725 6.13333 2.99725C6.9184 2.99725 7.70347 3.29127 8.30147 3.87332L20.5681 15.8743C21.1477 16.4444 21.4667 17.1974 21.4667 17.9985C21.4667 18.7996 21.1477 19.5526 20.5681 20.1197Z" fill="#D3A341"/>
</svg>
